<svg width="109" height="62" viewBox="0 0 109 62" fill="none" xmlns="http://www.w3.org/2000/svg">
<path d="M9.95312 47.2656C8.82812 46.5156 8.20312 45.375 8.07812 43.8438C7.95312 42.3125 8.14062 40.6094 8.64062 38.7344C9.17188 36.8594 9.90625 34.9062 10.8438 32.875C11.8125 30.8125 12.8125 28.8906 13.8438 27.1094C14.9062 25.3281 15.9062 23.7656 16.8438 22.4219C17.7812 21.0469 18.4844 20.1094 18.9531 19.6094C18.9844 19.4844 19 19.2188 19 18.8125C19 18.375 18.9844 18.0938 18.9531 17.9688C18.8906 17.5938 18.7812 16.9531 18.625 16.0469C18.5 15.1094 18.3438 14.125 18.1562 13.0938C18 12.0312 17.8281 11.0469 17.6406 10.1406C17.4844 9.20312 17.375 8.54688 17.3125 8.17188C17.1562 7.89062 16.9219 7.65625 16.6094 7.46875C16.3281 7.28125 16.0156 7.26562 15.6719 7.42188L2.6875 12.25C2.3125 12.4062 1.98438 12.3906 1.70312 12.2031C1.42188 12.0156 1.21875 11.7656 1.09375 11.4531C0.96875 11.1406 0.953125 10.8281 1.04688 10.5156C1.17188 10.2031 1.4375 9.96875 1.84375 9.8125L28.7031 0.859375H31.1406C31.3594 1.51562 31.4219 2 31.3281 2.3125C31.2344 2.59375 31.0469 2.79688 30.7656 2.92188C30.5156 3.04688 30.2031 3.125 29.8281 3.15625C29.4531 3.1875 29.0781 3.25 28.7031 3.34375C28.3906 3.4375 27.8438 3.59375 27.0625 3.8125C26.3125 4.03125 25.5 4.28125 24.625 4.5625C23.75 4.8125 22.9219 5.0625 22.1406 5.3125C21.3906 5.53125 20.875 5.6875 20.5938 5.78125C20.4062 7.5625 20.4531 9.35938 20.7344 11.1719C21.0156 12.9531 21.5156 14.6719 22.2344 16.3281L30.3438 12.25C30.7812 12.0312 31.2031 12 31.6094 12.1562C32.0469 12.3125 32.3594 12.5469 32.5469 12.8594C32.7656 13.1719 32.8438 13.5156 32.7812 13.8906C32.7188 14.2344 32.4375 14.5 31.9375 14.6875C31.2188 14.9688 30.3594 15.2656 29.3594 15.5781C28.3906 15.8594 27.4219 16.2031 26.4531 16.6094C25.4844 17.0156 24.6094 17.5156 23.8281 18.1094C23.0469 18.7031 22.5156 19.4688 22.2344 20.4062C22.1094 20.7188 22 21.4531 21.9062 22.6094C21.8125 23.7344 21.6875 25.1094 21.5312 26.7344C21.4062 28.3594 21.2188 30.125 20.9688 32.0312C20.75 33.9375 20.4531 35.8125 20.0781 37.6562C19.7031 39.4688 19.2344 41.1719 18.6719 42.7656C18.1094 44.3594 17.4219 45.6406 16.6094 46.6094C15.7969 47.6094 14.8438 48.2031 13.75 48.3906C12.6562 48.5781 11.3906 48.2031 9.95312 47.2656ZM11.5938 44.7812C12.0312 45.6562 12.5156 45.9531 13.0469 45.6719C13.5781 45.4219 14.1094 44.8281 14.6406 43.8906C15.2031 42.9844 15.7344 41.8438 16.2344 40.4688C16.7344 39.125 17.1719 37.7969 17.5469 36.4844C17.9531 35.1719 18.2812 34 18.5312 32.9688C18.7812 31.9375 18.9219 31.2656 18.9531 30.9531C18.9844 30.6719 19 30.1562 19 29.4062V24.4844C19 23.7031 18.9844 23.1562 18.9531 22.8438C17.6406 24.2188 16.4688 25.7969 15.4375 27.5781C14.4375 29.3281 13.6094 31.1719 12.9531 33.1094C12.2969 35.0156 11.8438 36.9688 11.5938 38.9688C11.3438 40.9688 11.3438 42.9062 11.5938 44.7812ZM39.2639 14.464C37.9199 14.464 36.9119 14.16 36.2399 13.552C35.5679 12.912 35.2319 12.032 35.2319 10.912C35.2319 9.792 35.6639 8.864 36.5279 8.128C37.4239 7.36 38.5279 6.976 39.8399 6.976C41.0239 6.976 41.9839 7.264 42.7199 7.84C43.4559 8.416 43.8239 9.232 43.8239 10.288C43.8239 11.568 43.4079 12.592 42.5759 13.36C41.7439 14.096 40.6399 14.464 39.2639 14.464ZM38.8799 40.24C36.7999 40.24 35.2799 39.504 34.3199 38.032C33.3919 36.56 32.9279 34.608 32.9279 32.176C32.9279 30.736 33.1039 28.896 33.4559 26.656C33.8399 24.384 34.3199 22.272 34.8959 20.32C35.1839 19.296 35.5679 18.592 36.0479 18.208C36.5279 17.824 37.2959 17.632 38.3519 17.632C39.9839 17.632 40.7999 18.176 40.7999 19.264C40.7999 20.064 40.4959 21.92 39.8879 24.832C39.1199 28.352 38.7359 30.736 38.7359 31.984C38.7359 32.944 38.8639 33.68 39.1199 34.192C39.3759 34.704 39.8079 34.96 40.4159 34.96C40.9919 34.96 41.7119 34.56 42.5759 33.76C43.4399 32.96 44.5919 31.696 46.0319 29.968C46.4159 29.52 46.8479 29.296 47.3279 29.296C47.7439 29.296 48.0639 29.488 48.2879 29.872C48.5439 30.256 48.6719 30.784 48.6719 31.456C48.6719 32.736 48.3679 33.728 47.7599 34.432C44.5919 38.304 41.6319 40.24 38.8799 40.24ZM69.3644 29.392C69.7804 29.392 70.1004 29.6 70.3244 30.016C70.5804 30.4 70.7084 30.896 70.7084 31.504C70.7084 32.24 70.5964 32.816 70.3724 33.232C70.1484 33.648 69.7964 34.016 69.3164 34.336C66.5644 36.192 64.5484 37.568 63.2684 38.464L60.1964 40.528C58.9804 47.152 57.3804 52.352 55.3964 56.128C53.4444 59.936 50.9484 61.84 47.9084 61.84C46.2764 61.84 44.9484 61.328 43.9244 60.304C42.9004 59.312 42.3884 58 42.3884 56.368C42.3884 54.096 43.2844 51.648 45.0764 49.024C46.8684 46.432 50.2284 43.232 55.1564 39.424L55.4444 37.552C54.9004 38.416 54.1804 39.088 53.2844 39.568C52.4204 40.016 51.5564 40.24 50.6924 40.24C48.7084 40.24 47.1244 39.52 45.9404 38.08C44.7564 36.64 44.1644 34.752 44.1644 32.416C44.1644 29.856 44.7564 27.44 45.9404 25.168C47.1244 22.864 48.6924 21.024 50.6444 19.648C52.6284 18.24 54.7244 17.536 56.9324 17.536C57.6364 17.536 58.1004 17.68 58.3244 17.968C58.5804 18.224 58.7884 18.704 58.9484 19.408C59.5564 19.28 60.2604 19.216 61.0604 19.216C61.8604 19.216 62.4204 19.344 62.7404 19.6C63.0924 19.824 63.2684 20.288 63.2684 20.992C63.2684 21.376 63.2524 21.68 63.2204 21.904C63.0924 22.896 62.6924 25.408 62.0204 29.44C61.8924 30.208 61.7484 31.056 61.5884 31.984C61.4604 32.88 61.3164 33.84 61.1564 34.864C63.6204 32.944 65.9884 31.248 68.2604 29.776C68.6764 29.52 69.0444 29.392 69.3644 29.392ZM52.4204 35.392C53.1564 35.392 53.8604 34.944 54.5324 34.048C55.2044 33.152 55.6844 31.872 55.9724 30.208L57.5084 22C56.1964 22.032 54.9804 22.544 53.8604 23.536C52.7404 24.496 51.8444 25.776 51.1724 27.376C50.5004 28.976 50.1644 30.672 50.1644 32.464C50.1644 33.456 50.3564 34.192 50.7404 34.672C51.1564 35.152 51.7164 35.392 52.4204 35.392ZM48.4364 57.184C49.2364 57.184 50.1324 56.224 51.1244 54.304C52.1484 52.384 53.1244 49.328 54.0524 45.136C51.5884 47.248 49.8124 49.152 48.7244 50.848C47.6364 52.544 47.0924 54.032 47.0924 55.312C47.0924 55.856 47.1884 56.304 47.3804 56.656C47.6044 57.008 47.9564 57.184 48.4364 57.184ZM91.8644 29.392C92.2804 29.392 92.6004 29.6 92.8244 30.016C93.0804 30.4 93.2084 30.896 93.2084 31.504C93.2084 32.24 93.0964 32.816 92.8724 33.232C92.6484 33.648 92.2964 34.016 91.8164 34.336C89.0644 36.192 87.0484 37.568 85.7684 38.464L82.6964 40.528C81.4804 47.152 79.8804 52.352 77.8964 56.128C75.9444 59.936 73.4484 61.84 70.4084 61.84C68.7764 61.84 67.4484 61.328 66.4244 60.304C65.4004 59.312 64.8884 58 64.8884 56.368C64.8884 54.096 65.7844 51.648 67.5764 49.024C69.3684 46.432 72.7284 43.232 77.6564 39.424L77.9444 37.552C77.4004 38.416 76.6804 39.088 75.7844 39.568C74.9204 40.016 74.0564 40.24 73.1924 40.24C71.2084 40.24 69.6244 39.52 68.4404 38.08C67.2564 36.64 66.6644 34.752 66.6644 32.416C66.6644 29.856 67.2564 27.44 68.4404 25.168C69.6244 22.864 71.1924 21.024 73.1444 19.648C75.1284 18.24 77.2244 17.536 79.4324 17.536C80.1364 17.536 80.6004 17.68 80.8244 17.968C81.0804 18.224 81.2884 18.704 81.4484 19.408C82.0564 19.28 82.7604 19.216 83.5604 19.216C84.3604 19.216 84.9204 19.344 85.2404 19.6C85.5924 19.824 85.7684 20.288 85.7684 20.992C85.7684 21.376 85.7524 21.68 85.7204 21.904C85.5924 22.896 85.1924 25.408 84.5204 29.44C84.3924 30.208 84.2484 31.056 84.0884 31.984C83.9604 32.88 83.8164 33.84 83.6564 34.864C86.1204 32.944 88.4884 31.248 90.7604 29.776C91.1764 29.52 91.5444 29.392 91.8644 29.392ZM74.9204 35.392C75.6564 35.392 76.3604 34.944 77.0324 34.048C77.7044 33.152 78.1844 31.872 78.4724 30.208L80.0084 22C78.6964 22.032 77.4804 22.544 76.3604 23.536C75.2404 24.496 74.3444 25.776 73.6724 27.376C73.0004 28.976 72.6644 30.672 72.6644 32.464C72.6644 33.456 72.8564 34.192 73.2404 34.672C73.6564 35.152 74.2164 35.392 74.9204 35.392ZM70.9364 57.184C71.7364 57.184 72.6324 56.224 73.6244 54.304C74.6484 52.384 75.6244 49.328 76.5524 45.136C74.0884 47.248 72.3124 49.152 71.2244 50.848C70.1364 52.544 69.5924 54.032 69.5924 55.312C69.5924 55.856 69.6884 56.304 69.8804 56.656C70.1044 57.008 70.4564 57.184 70.9364 57.184ZM106.542 17.632C107.278 17.632 107.79 17.728 108.078 17.92C108.366 18.112 108.51 18.432 108.51 18.88C108.51 19.648 108.094 22.384 107.262 27.088C106.526 31.6 106.094 34.272 105.966 35.104C104.782 43.328 103.15 49.84 101.07 54.64C98.9895 59.44 96.2215 61.84 92.7655 61.84C91.1335 61.84 89.8055 61.328 88.7815 60.304C87.7575 59.312 87.2455 58 87.2455 56.368C87.2455 54.864 87.5815 53.328 88.2535 51.76C88.9575 50.192 90.2375 48.384 92.0935 46.336C93.9815 44.32 96.6375 42 100.062 39.376L100.206 38.272C100.43 37.088 100.686 35.392 100.974 33.184C100.334 35.488 99.4375 37.248 98.2855 38.464C97.1335 39.648 95.9175 40.24 94.6375 40.24C93.1975 40.24 92.0135 39.584 91.0855 38.272C90.1895 36.928 89.7415 35.264 89.7415 33.28C89.7415 30.88 89.9015 28.688 90.2215 26.704C90.5415 24.688 91.0695 22.56 91.8055 20.32C92.1255 19.36 92.5735 18.672 93.1495 18.256C93.7255 17.84 94.6375 17.632 95.8855 17.632C96.5895 17.632 97.0695 17.744 97.3255 17.968C97.6135 18.192 97.7575 18.528 97.7575 18.976C97.7575 19.232 97.5815 20.096 97.2295 21.568C96.9095 22.752 96.6535 23.824 96.4615 24.784C96.2055 26.096 95.9815 27.36 95.7895 28.576C95.5975 29.76 95.5015 30.736 95.5015 31.504C95.5015 32.72 95.8375 33.328 96.5095 33.328C96.9895 33.328 97.5815 32.848 98.2855 31.888C99.0215 30.928 99.7895 29.472 100.59 27.52C101.422 25.568 102.222 23.168 102.99 20.32C103.246 19.36 103.63 18.672 104.142 18.256C104.686 17.84 105.486 17.632 106.542 17.632ZM93.2935 57.184C94.0935 57.184 94.9895 56.256 95.9815 54.4C96.9735 52.544 97.9655 49.456 98.9575 45.136C96.4935 47.216 94.7015 49.104 93.5815 50.8C92.4935 52.528 91.9495 54.032 91.9495 55.312C91.9495 55.856 92.0455 56.304 92.2375 56.656C92.4615 57.008 92.8135 57.184 93.2935 57.184Z" fill="url(#paint0_linear_154_1760)"/>
<defs>
<linearGradient id="paint0_linear_154_1760" x1="4.6" y1="28.1042" x2="110.537" y2="40.9866" gradientUnits="userSpaceOnUse">
<stop stop-color="#F33F5E"/>
<stop offset="0.520895" stop-color="#FF008A" stop-opacity="0.62"/>
<stop offset="1" stop-color="#B416FE" stop-opacity="0.4"/>
</linearGradient>
</defs>
</svg>
